# xmcd
# 
# Track frame offsets:
#   150
#   19358
#   36925
#   53803
#   72147
#   84932
#   101866
#   121785
#   140585
#   154654
#   174141
#   190004
#   205246
#   223653
#   239306
# 
# Disc length: 3371 seconds
# 
# Revision: 3
# Processed by: cddbd v1.5.2PL0 Copyright (c) Steve Scherf et al.
# Submitted via: Synapstar 1.0 
# 
DISCID=ca0d290f
DTITLE=Various Artist - CB - Country Hits - September 2008
DYEAR=2008
DGENRE=Country
TTITLE0=Kenny Chesney - Got A Little Crazy
TTITLE1=Tim McGraw - Let It Go
TTITLE2=Carrie Underwood - More Boys I Meet, The
TTITLE3=Trace Adkins - Muddy Water
TTITLE4=Marcel - I Love This Song
TTITLE5=Blake Shelton - She Wouldn't Be Gone
TTITLE6=Dolly Parton - Shinola
TTITLE7=Montgomery Gentry - Roll With Me
TTITLE8=Darryl Worley - Tequila On Ice
TTITLE9=Whitney Duncan - When I Said I Would
TTITLE10=Rehab Feat. Hank Williams Jr. - Bartender Song (a.k.a. Sittin' At A Bar)
TTITLE11=Trent Willmon - Cold Beer And A Fishin' Pole
TTITLE12=LeAnn Rimes - Family
TTITLE13=Randy Travis - Dig Two Graves
TTITLE14=Kenny Chesney - Everybody Wants To Go To Heaven
EXTD=MediaType: Karaoke CD+G Producer: chartbuster
EXTT0=
EXTT1=
EXTT2=
EXTT3=
EXTT4=
EXTT5=
EXTT6=
EXTT7=
EXTT8=
EXTT9=
EXTT10=
EXTT11=
EXTT12=
EXTT13=
EXTT14=
PLAYORDER=
